<svg id="LOGO" xmlns="http://www.w3.org/2000/svg" viewBox="0 0 100 100"><defs><style>.cls-1{fill:#ededed;}.cls-2{fill:#1d1d1b;}.cls-3{fill:#bf8b2e;}.cls-4{fill:#dda63a;}.cls-5{fill:#a31a42;}.cls-6{fill:#ff3b21;}.cls-7{fill:#00699e;}.cls-8{fill:#c41a2e;}.cls-9{fill:#de1266;}.cls-10{fill:#1a476b;}.cls-11{fill:#fcc20a;}.cls-12{fill:#fc9e24;}.cls-13{fill:#407d45;}.cls-14{fill:#26bde3;}.cls-15{fill:#0a96d9;}.cls-16{fill:#57bf2b;}.cls-17{fill:#fc6926;}.cls-18{fill:#4d9e38;}.cls-19{fill:#e5243b;}</style></defs><rect id="gray" class="cls-1" y="5" width="100" height="95"/><g id="ODSLA"><path class="cls-2" d="M10.19,30.5a5.15,5.15,0,0,1-2.73-.64A3.5,3.5,0,0,1,6,28a8.2,8.2,0,0,1-.43-2.82v-6A8,8,0,0,1,6,16.39a3.44,3.44,0,0,1,1.45-1.77A5.26,5.26,0,0,1,10.19,14a5.26,5.26,0,0,1,2.75.62,3.49,3.49,0,0,1,1.45,1.77,7.79,7.79,0,0,1,.45,2.8v6A7.85,7.85,0,0,1,14.39,28a3.63,3.63,0,0,1-1.45,1.83A5.06,5.06,0,0,1,10.19,30.5Zm0-2.17A1.57,1.57,0,0,0,11.27,28a1.6,1.6,0,0,0,.47-.87,5.8,5.8,0,0,0,.12-1.22V18.51a5.57,5.57,0,0,0-.12-1.21,1.58,1.58,0,0,0-.47-.85,1.62,1.62,0,0,0-1.08-.3,1.61,1.61,0,0,0-1.06.3,1.58,1.58,0,0,0-.47.85,5.57,5.57,0,0,0-.12,1.21v7.41a5.83,5.83,0,0,0,.11,1.22,1.53,1.53,0,0,0,.46.87A1.6,1.6,0,0,0,10.19,28.33Z"/><path class="cls-2" d="M17,30.28V14.18h3.8a7.1,7.1,0,0,1,3.07.54,3.07,3.07,0,0,1,1.57,1.64,7.43,7.43,0,0,1,.47,2.83v5.88A7.84,7.84,0,0,1,25.44,28a3.25,3.25,0,0,1-1.55,1.73,6.43,6.43,0,0,1-3,.57ZM20,28.23h.89a2.28,2.28,0,0,0,1.45-.36,1.59,1.59,0,0,0,.54-1,13.07,13.07,0,0,0,.1-1.68V19a7.33,7.33,0,0,0-.14-1.57,1.4,1.4,0,0,0-.58-.88,2.78,2.78,0,0,0-1.41-.27H20Z"/><path class="cls-2" d="M32.13,30.5a4.75,4.75,0,0,1-2.43-.57,3.56,3.56,0,0,1-1.47-1.66,7.15,7.15,0,0,1-.55-2.68l2.52-.5a7.81,7.81,0,0,0,.23,1.65,2.39,2.39,0,0,0,.57,1.1,1.39,1.39,0,0,0,1,.39,1.13,1.13,0,0,0,1-.43,1.81,1.81,0,0,0,.3-1.08A2.92,2.92,0,0,0,32.86,25a7.15,7.15,0,0,0-1.27-1.35l-2-1.79a6.16,6.16,0,0,1-1.36-1.64A4.5,4.5,0,0,1,27.7,18,3.82,3.82,0,0,1,28.81,15a4.27,4.27,0,0,1,3-1,4.59,4.59,0,0,1,1.89.35,3,3,0,0,1,1.2,1,4.43,4.43,0,0,1,.67,1.4,8.85,8.85,0,0,1,.27,1.66l-2.5.44a8.56,8.56,0,0,0-.17-1.35,1.93,1.93,0,0,0-.46-.94,1.28,1.28,0,0,0-1-.33,1.22,1.22,0,0,0-1,.42,1.6,1.6,0,0,0-.35,1.07A2.4,2.4,0,0,0,30.78,19a5.18,5.18,0,0,0,1,1.08l2,1.77a8.42,8.42,0,0,1,1.7,2,5,5,0,0,1,.7,2.71,4.18,4.18,0,0,1-.5,2.05A3.67,3.67,0,0,1,34.24,30,4.2,4.2,0,0,1,32.13,30.5Z"/><path class="cls-2" d="M5,52.14,8.22,36h3.14l3.22,16.1H11.86l-.64-3.72H8.42l-.66,3.72Zm3.72-5.59H10.9L9.81,39.8Z"/><path class="cls-2" d="M16.15,52.14,16.43,36h3l2.28,11.15L24.14,36h2.94l.3,16.1H25.19L25,41,22.67,52.14H20.9L18.57,40.91l-.21,11.23Z"/><path class="cls-2" d="M29.64,52.14V36H36.4v2.07H32.59v4.63h3v2h-3v5.32h3.85v2Zm2.63-17.21,1.21-4H36.2l-2.36,4Z"/><path class="cls-2" d="M38.15,52.14V36H42a8.47,8.47,0,0,1,2.75.39,3.17,3.17,0,0,1,1.71,1.32,4.75,4.75,0,0,1,.58,2.54A7.72,7.72,0,0,1,46.87,42a3.21,3.21,0,0,1-.6,1.32,2.75,2.75,0,0,1-1.18.85l2.24,7.93H44.39l-2-7.37H41.09v7.37Zm2.94-9.22H42a3.21,3.21,0,0,0,1.36-.25,1.46,1.46,0,0,0,.72-.8,3.7,3.7,0,0,0,.22-1.4,3.05,3.05,0,0,0-.45-1.82,2,2,0,0,0-1.7-.6H41.09Z"/><path class="cls-2" d="M49.34,52.14V36h2.9v16.1Z"/><path class="cls-2" d="M59.06,52.36a4.79,4.79,0,0,1-2.78-.7,3.66,3.66,0,0,1-1.4-1.9A9,9,0,0,1,54.49,47V41.25a9.33,9.33,0,0,1,.39-2.86,3.47,3.47,0,0,1,1.4-1.87,6.22,6.22,0,0,1,5.39-.09A3.1,3.1,0,0,1,63,38.05a6.75,6.75,0,0,1,.4,2.44v1.35H60.59V40.45a11.36,11.36,0,0,0-.07-1.23,1.49,1.49,0,0,0-.38-.88A1.42,1.42,0,0,0,59.08,38a1.5,1.5,0,0,0-1.11.35,1.63,1.63,0,0,0-.44.93,7.54,7.54,0,0,0-.1,1.32v7a5.84,5.84,0,0,0,.14,1.44,1.47,1.47,0,0,0,.5.85,1.62,1.62,0,0,0,1,.29,1.33,1.33,0,0,0,1-.35,1.72,1.72,0,0,0,.39-.92,10.14,10.14,0,0,0,.08-1.29V46.18h2.82v1.29A7.83,7.83,0,0,1,63,50a3.27,3.27,0,0,1-1.32,1.73A4.74,4.74,0,0,1,59.06,52.36Z"/><path class="cls-2" d="M64.64,52.14,67.86,36H71l3.22,16.1H71.5l-.64-3.72h-2.8l-.66,3.72Zm3.72-5.59h2.18L69.45,39.8Z"/><path class="cls-2" d="M5.82,74V57.9H8.76V72h3.89v2Z"/><path class="cls-2" d="M13.37,74l3.22-16.1h3.14L23,74H20.22l-.63-3.72h-2.8L16.13,74Zm3.71-5.58h2.19l-1.09-6.76Z"/><path class="cls-2" d="M25.41,74V60.07H22.85V57.9h8v2.17H28.35V74Z"/><path class="cls-2" d="M32.43,74V57.9h2.9V74Z"/><path class="cls-2" d="M37.81,74V57.9h2l3.91,9.18V57.9H46.2V74h-2l-3.93-9.62V74Z"/><path class="cls-2" d="M47.83,74l3.22-16.1h3.14L57.41,74H54.68l-.63-3.72h-2.8L50.59,74Zm3.72-5.58h2.18l-1.09-6.76Z"/></g><g id="IEDS"><path class="cls-2" d="M6.3,87.48H5.24V83.06H6.3Z"/><path class="cls-2" d="M10.73,87.48H9.67L8.1,84.73v2.75H7V83.06H8.1l1.57,2.75V83.06h1.06Z"/><path class="cls-2" d="M11.4,87.48V83.06h1.42a2.12,2.12,0,0,1,1.06.27,2,2,0,0,1,.73.75,2.27,2.27,0,0,1,.26,1.08v.21a2.26,2.26,0,0,1-.25,1.08,2,2,0,0,1-.73.76,2,2,0,0,1-1,.27Zm1.07-3.59v2.77h.37a.84.84,0,0,0,.7-.32,1.65,1.65,0,0,0,.25-1v-.19a1.63,1.63,0,0,0-.25-1,.83.83,0,0,0-.72-.32Z"/><path class="cls-2" d="M18.88,83.06V86a1.69,1.69,0,0,1-.21.86,1.31,1.31,0,0,1-.6.54,2,2,0,0,1-.92.19,1.82,1.82,0,0,1-1.27-.42A1.5,1.5,0,0,1,15.4,86V83.06h1.07V86c0,.48.24.72.68.72a.67.67,0,0,0,.5-.18.87.87,0,0,0,.17-.59V83.06Z"/><path class="cls-2" d="M21.82,86.31a.44.44,0,0,0-.16-.37,2.46,2.46,0,0,0-.58-.27,4.36,4.36,0,0,1-.68-.27,1.28,1.28,0,0,1-.86-1.16,1,1,0,0,1,.21-.64,1.4,1.4,0,0,1,.61-.44,2.42,2.42,0,0,1,.88-.16,2.08,2.08,0,0,1,.85.17,1.37,1.37,0,0,1,.59.49,1.26,1.26,0,0,1,.21.71H21.83a.51.51,0,0,0-.17-.41.63.63,0,0,0-.44-.15.76.76,0,0,0-.46.12.39.39,0,0,0-.16.32.38.38,0,0,0,.18.31,2.46,2.46,0,0,0,.64.29,3.39,3.39,0,0,1,.75.31,1.28,1.28,0,0,1,.72,1.14,1.08,1.08,0,0,1-.44.91,1.94,1.94,0,0,1-1.2.33,2.37,2.37,0,0,1-1-.19,1.45,1.45,0,0,1-.65-.53,1.34,1.34,0,0,1-.22-.77h1.06a.67.67,0,0,0,.19.52.87.87,0,0,0,.59.17.72.72,0,0,0,.42-.11A.39.39,0,0,0,21.82,86.31Z"/><path class="cls-2" d="M26.9,83.89H25.58v3.59H24.51V83.89h-1.3v-.83H26.9Z"/><path class="cls-2" d="M29,85.92h-.57v1.56H27.35V83.06h1.74a2,2,0,0,1,1.23.35,1.19,1.19,0,0,1,.44,1,1.47,1.47,0,0,1-.18.76,1.32,1.32,0,0,1-.59.49l.92,1.79v0H29.77Zm-.57-.82h.67a.6.6,0,0,0,.46-.16.64.64,0,0,0,.15-.45.6.6,0,0,0-.15-.44.62.62,0,0,0-.46-.17h-.67Z"/><path class="cls-2" d="M32.54,87.48H31.48V83.06h1.06Z"/><path class="cls-2" d="M35.84,86.66H34.38l-.25.82H33l1.62-4.42h1l1.64,4.42H36.1Zm-1.2-.83h1l-.48-1.53Z"/><path class="cls-2" d="M39.85,86.31a.45.45,0,0,0-.17-.37,2.46,2.46,0,0,0-.58-.27,4.8,4.8,0,0,1-.68-.27,1.28,1.28,0,0,1-.86-1.16,1,1,0,0,1,.21-.64,1.4,1.4,0,0,1,.61-.44,2.42,2.42,0,0,1,.88-.16,2.08,2.08,0,0,1,.85.17,1.37,1.37,0,0,1,.59.49,1.26,1.26,0,0,1,.21.71H39.85a.51.51,0,0,0-.17-.41.63.63,0,0,0-.44-.15.78.78,0,0,0-.46.12.39.39,0,0,0-.16.32.38.38,0,0,0,.18.31,2.46,2.46,0,0,0,.64.29,3.39,3.39,0,0,1,.75.31,1.28,1.28,0,0,1,.72,1.14,1.08,1.08,0,0,1-.44.91,1.94,1.94,0,0,1-1.2.33,2.37,2.37,0,0,1-1-.19,1.45,1.45,0,0,1-.65-.53,1.34,1.34,0,0,1-.22-.77H38.5a.67.67,0,0,0,.18.52.87.87,0,0,0,.59.17.72.72,0,0,0,.42-.11A.4.4,0,0,0,39.85,86.31Z"/><path class="cls-2" d="M45.74,85.61H44.07v1h2v.82H43V83.06h3v.83h-2v.93h1.67Z"/><path class="cls-2" d="M48.13,84.53l.72-1.47h1.22l-1.24,2.19,1.27,2.23H48.87L48.13,86l-.75,1.49H46.16l1.26-2.23-1.23-2.19H47.4Z"/><path class="cls-2" d="M53.91,83.89H52.59v3.59H51.52V83.89h-1.3v-.83h3.69Z"/><path class="cls-2" d="M56,85.92h-.57v1.56H54.36V83.06H56.1a2,2,0,0,1,1.23.35,1.19,1.19,0,0,1,.44,1,1.38,1.38,0,0,1-.19.76,1.24,1.24,0,0,1-.58.49l.92,1.79v0H56.78Zm-.57-.82h.67a.61.61,0,0,0,.46-.16.64.64,0,0,0,.15-.45.57.57,0,0,0-.16-.44.58.58,0,0,0-.45-.17h-.67Z"/><path class="cls-2" d="M60.92,86.66H59.46l-.25.82H58.07l1.62-4.42h1l1.63,4.42H61.18Zm-1.2-.83h1l-.48-1.53Z"/><path class="cls-2" d="M66.16,86a1.71,1.71,0,0,1-.25.81,1.5,1.5,0,0,1-.64.55,2.19,2.19,0,0,1-.94.19A1.72,1.72,0,0,1,63,87a2.34,2.34,0,0,1-.5-1.6v-.22A2.65,2.65,0,0,1,62.68,84a1.65,1.65,0,0,1,.65-.75,1.84,1.84,0,0,1,1-.27,1.93,1.93,0,0,1,1.29.42,1.7,1.7,0,0,1,.56,1.17H65.1a.75.75,0,0,0-.2-.58.82.82,0,0,0-.58-.18.62.62,0,0,0-.58.3,1.89,1.89,0,0,0-.2,1v.31a2.08,2.08,0,0,0,.18,1,.64.64,0,0,0,.61.31.8.8,0,0,0,.56-.18A.71.71,0,0,0,65.1,86Z"/><path class="cls-2" d="M70,83.89H68.71v3.59H67.65V83.89h-1.3v-.83H70Z"/><path class="cls-2" d="M71.62,87.48H70.56V83.06h1.06Z"/><path class="cls-2" d="M74.08,86.28,75,83.06h1.19l-1.49,4.42H73.49L72,83.06H73.2Z"/><path class="cls-2" d="M78.75,86.66H77.29l-.25.82H75.9l1.62-4.42h1l1.63,4.42H79Zm-1.21-.83h.95L78,84.3Z"/><path class="cls-2" d="M82.75,86.31a.44.44,0,0,0-.16-.37,2.82,2.82,0,0,0-.59-.27,5.34,5.34,0,0,1-.68-.27,1.27,1.27,0,0,1-.85-1.16,1,1,0,0,1,.21-.64,1.29,1.29,0,0,1,.61-.44,2.42,2.42,0,0,1,.88-.16,2.11,2.11,0,0,1,.85.17,1.43,1.43,0,0,1,.59.49,1.26,1.26,0,0,1,.21.71H82.75a.5.5,0,0,0-.16-.41.64.64,0,0,0-.45-.15.75.75,0,0,0-.45.12.4.4,0,0,0-.17.32.39.39,0,0,0,.19.31,2.3,2.3,0,0,0,.64.29,3.86,3.86,0,0,1,.75.31,1.28,1.28,0,0,1,.72,1.14,1.08,1.08,0,0,1-.44.91,1.94,1.94,0,0,1-1.2.33,2.33,2.33,0,0,1-1-.19,1.54,1.54,0,0,1-.66-.53,1.42,1.42,0,0,1-.22-.77H81.4a.67.67,0,0,0,.18.52.91.91,0,0,0,.6.17.72.72,0,0,0,.42-.11A.39.39,0,0,0,82.75,86.31Z"/><path class="cls-2" d="M5.77,92.61a2.76,2.76,0,0,1-.28-.49,1.28,1.28,0,0,1-.1-.47,1.15,1.15,0,0,1,.35-.87,1.29,1.29,0,0,1,.9-.32,1.19,1.19,0,0,1,.83.3,1,1,0,0,1,.33.76,1.25,1.25,0,0,1-.62,1l-.24.16.68.78a1.51,1.51,0,0,0,.17-.73h.86a2.33,2.33,0,0,1-.41,1.43l.67.78H7.77l-.21-.24a2.17,2.17,0,0,1-.52.23,2.15,2.15,0,0,1-.6.07,1.56,1.56,0,0,1-1.05-.34A1.17,1.17,0,0,1,5,93.75a1,1,0,0,1,.16-.56,2.37,2.37,0,0,1,.6-.57Zm.74,1.6A1.13,1.13,0,0,0,7,94.09l-.79-.91,0,0a.71.71,0,0,0-.17.48.57.57,0,0,0,.13.38A.47.47,0,0,0,6.51,94.21Zm-.24-2.57a.93.93,0,0,0,.23.51L6.71,92a.72.72,0,0,0,.2-.18A.49.49,0,0,0,7,91.59a.36.36,0,0,0-.09-.24.34.34,0,0,0-.24-.11.37.37,0,0,0-.27.11A.44.44,0,0,0,6.27,91.64Z"/><path class="cls-2" d="M10.9,94.94V90.52h1.42a2.15,2.15,0,0,1,1,.26,1.88,1.88,0,0,1,.73.75,2.23,2.23,0,0,1,.27,1.09v.2a2.28,2.28,0,0,1-.26,1.09,1.86,1.86,0,0,1-.72.75,2.15,2.15,0,0,1-1,.28ZM12,91.34v2.78h.37a.84.84,0,0,0,.71-.33,1.63,1.63,0,0,0,.24-1v-.19a1.58,1.58,0,0,0-.24-1,.86.86,0,0,0-.72-.33Z"/><path class="cls-2" d="M17.65,93.06H16v1.06h2v.82H14.91V90.52H18v.82H16v.93h1.67Z"/><path class="cls-2" d="M20.67,93.76a.45.45,0,0,0-.17-.36,1.85,1.85,0,0,0-.58-.27,5.34,5.34,0,0,1-.68-.27,1.29,1.29,0,0,1-.86-1.16,1.06,1.06,0,0,1,.22-.65,1.38,1.38,0,0,1,.6-.44,2.46,2.46,0,0,1,.88-.15,2.13,2.13,0,0,1,.86.17,1.31,1.31,0,0,1,.58.48,1.27,1.27,0,0,1,.21.72H20.67a.54.54,0,0,0-.16-.42.64.64,0,0,0-.45-.15.69.69,0,0,0-.45.13.39.39,0,0,0-.17.32.4.4,0,0,0,.19.31,2.35,2.35,0,0,0,.64.28,4.55,4.55,0,0,1,.75.32,1.24,1.24,0,0,1,.71,1.14,1.08,1.08,0,0,1-.43.91,1.94,1.94,0,0,1-1.2.33,2.34,2.34,0,0,1-1-.2,1.45,1.45,0,0,1-.66-.52,1.37,1.37,0,0,1-.22-.78h1.07a.69.69,0,0,0,.18.53.9.9,0,0,0,.6.17.7.7,0,0,0,.42-.12A.37.37,0,0,0,20.67,93.76Z"/><path class="cls-2" d="M24.79,94.11H23.33l-.26.83H21.94l1.62-4.42h1l1.63,4.42H25.05Zm-1.21-.82h1l-.47-1.53Z"/><path class="cls-2" d="M28.15,93.37h-.57v1.57H26.51V90.52h1.74a2,2,0,0,1,1.23.35,1.19,1.19,0,0,1,.44,1,1.51,1.51,0,0,1-.18.77,1.39,1.39,0,0,1-.59.49l.92,1.78v0H28.93Zm-.57-.82h.67a.65.65,0,0,0,.46-.15.75.75,0,0,0,0-.9.61.61,0,0,0-.46-.16h-.67Z"/><path class="cls-2" d="M32.21,93.37h-.58v1.57H30.56V90.52H32.3a1.94,1.94,0,0,1,1.23.35,1.16,1.16,0,0,1,.44,1,1.51,1.51,0,0,1-.18.77,1.39,1.39,0,0,1-.59.49l.93,1.78v0H33Zm-.58-.82h.67a.62.62,0,0,0,.46-.15.75.75,0,0,0,0-.9.6.6,0,0,0-.46-.16h-.67Z"/><path class="cls-2" d="M38.36,92.82A2.58,2.58,0,0,1,38.12,94a1.82,1.82,0,0,1-.68.77,1.91,1.91,0,0,1-1,.27,2,2,0,0,1-1-.26,1.8,1.8,0,0,1-.68-.74,2.63,2.63,0,0,1-.26-1.11v-.25a2.66,2.66,0,0,1,.24-1.15,1.8,1.8,0,0,1,.68-.76,1.94,1.94,0,0,1,1-.27,1.9,1.9,0,0,1,1,.27,1.74,1.74,0,0,1,.68.76,2.51,2.51,0,0,1,.25,1.13Zm-1.08-.19a1.93,1.93,0,0,0-.22-1,.73.73,0,0,0-.63-.34c-.54,0-.82.4-.85,1.2v.33a2,2,0,0,0,.21,1,.72.72,0,0,0,.64.35.69.69,0,0,0,.62-.35,1.86,1.86,0,0,0,.23-1Z"/><path class="cls-2" d="M40,94.12h1.86v.82H38.91V90.52H40Z"/><path class="cls-2" d="M43.34,94.12h1.85v.82H42.28V90.52h1.06Z"/><path class="cls-2" d="M49.19,92.82A2.58,2.58,0,0,1,49,94a1.82,1.82,0,0,1-.68.77,1.91,1.91,0,0,1-1,.27,2,2,0,0,1-1-.26,1.8,1.8,0,0,1-.68-.74,2.63,2.63,0,0,1-.26-1.11v-.25a2.66,2.66,0,0,1,.24-1.15,1.8,1.8,0,0,1,.68-.76,1.94,1.94,0,0,1,1-.27,1.9,1.9,0,0,1,1,.27,1.74,1.74,0,0,1,.68.76,2.51,2.51,0,0,1,.25,1.13Zm-1.08-.19a1.93,1.93,0,0,0-.22-1,.73.73,0,0,0-.63-.34c-.54,0-.82.4-.85,1.2v.33a2,2,0,0,0,.21,1,.72.72,0,0,0,.64.35.69.69,0,0,0,.62-.35,1.86,1.86,0,0,0,.23-1Z"/><path class="cls-2" d="M53.56,93.76a.44.44,0,0,0-.16-.36,2,2,0,0,0-.58-.27,4.36,4.36,0,0,1-.68-.27,1.29,1.29,0,0,1-.86-1.16,1.05,1.05,0,0,1,.21-.65,1.48,1.48,0,0,1,.61-.44,2.42,2.42,0,0,1,.88-.15,2.08,2.08,0,0,1,.85.17,1.34,1.34,0,0,1,.59.48,1.27,1.27,0,0,1,.21.72H53.57a.54.54,0,0,0-.17-.42.64.64,0,0,0-.45-.15.69.69,0,0,0-.45.13.38.38,0,0,0-.16.32.41.41,0,0,0,.18.31,2.35,2.35,0,0,0,.64.28,3.91,3.91,0,0,1,.75.32,1.25,1.25,0,0,1,.72,1.14,1.09,1.09,0,0,1-.44.91A1.94,1.94,0,0,1,53,95a2.37,2.37,0,0,1-1-.2,1.34,1.34,0,0,1-.87-1.3h1.06a.66.66,0,0,0,.19.53.87.87,0,0,0,.59.17.66.66,0,0,0,.42-.12A.37.37,0,0,0,53.56,93.76Z"/><path class="cls-2" d="M58.91,92.82A2.58,2.58,0,0,1,58.68,94a1.78,1.78,0,0,1-.69.77A1.87,1.87,0,0,1,57,95a1.93,1.93,0,0,1-1-.26,1.8,1.8,0,0,1-.68-.74,2.49,2.49,0,0,1-.26-1.11v-.25a2.66,2.66,0,0,1,.24-1.15,1.73,1.73,0,0,1,.68-.76,1.91,1.91,0,0,1,1-.27,1.85,1.85,0,0,1,1,.27,1.76,1.76,0,0,1,.69.76,2.51,2.51,0,0,1,.24,1.13Zm-1.08-.19a1.83,1.83,0,0,0-.22-1,.71.71,0,0,0-.63-.34q-.79,0-.84,1.2v.33a1.88,1.88,0,0,0,.22,1,.71.71,0,0,0,.64.35.7.7,0,0,0,.62-.35,1.78,1.78,0,0,0,.22-1Z"/><path class="cls-2" d="M61.74,93.76a.44.44,0,0,0-.16-.36,2,2,0,0,0-.58-.27,4.36,4.36,0,0,1-.68-.27,1.28,1.28,0,0,1-.86-1.16,1.05,1.05,0,0,1,.21-.65,1.42,1.42,0,0,1,.61-.44,2.42,2.42,0,0,1,.88-.15,2.11,2.11,0,0,1,.85.17,1.34,1.34,0,0,1,.59.48,1.27,1.27,0,0,1,.21.72H61.75a.54.54,0,0,0-.17-.42.64.64,0,0,0-.45-.15.69.69,0,0,0-.45.13.38.38,0,0,0-.16.32.41.41,0,0,0,.18.31,2.35,2.35,0,0,0,.64.28,4.55,4.55,0,0,1,.75.32,1.25,1.25,0,0,1,.72,1.14,1.09,1.09,0,0,1-.44.91,1.94,1.94,0,0,1-1.2.33,2.34,2.34,0,0,1-1-.2,1.33,1.33,0,0,1-.88-1.3h1.07a.66.66,0,0,0,.19.53.87.87,0,0,0,.59.17.66.66,0,0,0,.42-.12A.37.37,0,0,0,61.74,93.76Z"/><path class="cls-2" d="M66.82,91.34H65.49v3.6H64.43v-3.6h-1.3v-.82h3.69Z"/><path class="cls-2" d="M70,93.06H68.33v1.06h2v.82h-3V90.52h3v.82h-2v.93H70Z"/><path class="cls-2" d="M74.44,94.94H73.38l-1.57-2.75v2.75H70.75V90.52h1.06l1.56,2.75V90.52h1.07Z"/><path class="cls-2" d="M76.24,94.94H75.18V90.52h1.06Z"/><path class="cls-2" d="M77,94.94V90.52h1.59a2.25,2.25,0,0,1,1.3.31,1.05,1.05,0,0,1,.44.91,1,1,0,0,1-.16.58.84.84,0,0,1-.46.36,1,1,0,0,1,.53.34,1,1,0,0,1,.19.61,1.14,1.14,0,0,1-.42,1,2,2,0,0,1-1.21.34Zm1.07-2.58h.55a.73.73,0,0,0,.5-.13.44.44,0,0,0,.15-.37.47.47,0,0,0-.16-.4.89.89,0,0,0-.52-.12h-.52Zm0,.7v1.06h.7a.7.7,0,0,0,.44-.13.55.55,0,0,0-.4-.93Z"/><path class="cls-2" d="M82.06,94.12h1.85v.82H81V90.52h1.07Z"/><path class="cls-2" d="M87.1,93.06H85.42v1.06h2v.82h-3V90.52h3v.82h-2v.93H87.1Z"/></g><g id="BAR"><rect class="cls-3" x="65.09" width="5.33" height="2.26"/><rect class="cls-4" x="5.92" width="5.33" height="2.26"/><rect class="cls-5" x="41.42" width="5.33" height="2.26"/><rect class="cls-6" x="23.67" width="5.33" height="2.26"/><rect class="cls-7" x="88.75" width="5.33" height="2.26"/><rect class="cls-8" x="17.75" width="5.33" height="2.26"/><rect class="cls-9" x="53.25" width="5.33" height="2.26"/><rect class="cls-10" x="94.67" width="5.33" height="2.26"/><rect class="cls-11" x="35.5" width="5.33" height="2.26"/><rect class="cls-12" x="59.17" width="5.33" height="2.26"/><rect class="cls-13" x="71" width="5.33" height="2.26"/><rect class="cls-14" x="29.58" width="5.33" height="2.26"/><rect class="cls-15" x="76.92" width="5.33" height="2.26"/><rect class="cls-16" x="82.84" width="5.33" height="2.26"/><rect class="cls-17" x="47.33" width="5.33" height="2.26"/><rect class="cls-18" x="11.83" width="5.33" height="2.26"/><rect class="cls-19" width="5.33" height="2.26"/></g></svg>